<svg xmlns="http://www.w3.org/2000/svg" width="1366.39" height="260.936" viewBox="0 0 1366.39 260.936"><g transform="translate(0.132 -630.412)"><path d="M15.539-11.232h-8.6V-3.99H17.051V0H1.934V-25.594H17.016v3.99H6.943v6.381h8.6ZM37.564,0H32.59L24.768-16.365l-.105.035V0h-5.01V-25.594h5.01L32.484-9.246l.105-.035V-25.594h4.975ZM56.021-21.6H50.256V0H45.264V-21.6h-5.73v-3.99H56.021Zm7.418,11.426V0H58.447V-25.576H66.8a8.392,8.392,0,0,1,5.933,2,7.186,7.186,0,0,1,2.153,5.546,6.438,6.438,0,0,1-.9,3.454,6.292,6.292,0,0,1-2.619,2.312,4.9,4.9,0,0,1,2.839,2.215,7.8,7.8,0,0,1,.87,3.867v1.811a11.311,11.311,0,0,0,.246,2.259,3.1,3.1,0,0,0,.861,1.749V0H71.016a2.885,2.885,0,0,1-.773-1.828,20.816,20.816,0,0,1-.158-2.584v-1.74A4.909,4.909,0,0,0,69.3-9.123a2.622,2.622,0,0,0-2.241-1.055Zm0-3.99h3.34A2.874,2.874,0,0,0,69.1-15.1a3.987,3.987,0,0,0,.791-2.654,4.5,4.5,0,0,0-.791-2.795,2.719,2.719,0,0,0-2.3-1.037H63.439Zm29.021,2.936h-8.6V-3.99H93.973V0H78.855V-25.594H93.938v3.99H83.865v6.381h8.6ZM119.531-21.6h-5.766V0h-4.992V-21.6h-5.73v-3.99h16.488Zm19.16,12.41a9.7,9.7,0,0,1-2.443,7.031,8.623,8.623,0,0,1-6.5,2.531,8.565,8.565,0,0,1-6.486-2.531,9.746,9.746,0,0,1-2.426-7.031v-7.172a9.816,9.816,0,0,1,2.426-7.04,8.5,8.5,0,0,1,6.469-2.558,8.612,8.612,0,0,1,6.5,2.558,9.731,9.731,0,0,1,2.461,7.04Zm-4.975-7.226a7.026,7.026,0,0,0-1.02-4.152,3.444,3.444,0,0,0-2.971-1.4,3.378,3.378,0,0,0-2.953,1.393,7.214,7.214,0,0,0-.984,4.16v7.228a7.152,7.152,0,0,0,1,4.178,3.406,3.406,0,0,0,2.953,1.393A3.434,3.434,0,0,0,132.7-5.014a7.056,7.056,0,0,0,1.02-4.178ZM141.943,0V-25.594h7.734a8.212,8.212,0,0,1,6.5,2.979,11.339,11.339,0,0,1,2.566,7.673v4.307a11.3,11.3,0,0,1-2.566,7.664A8.222,8.222,0,0,1,149.678,0Zm5.01-21.6V-3.99H149.4a3.592,3.592,0,0,0,3.226-1.821,9.051,9.051,0,0,0,1.134-4.83v-4.346a8.966,8.966,0,0,0-1.134-4.8A3.6,3.6,0,0,0,149.4-21.6ZM179.42-9.193a9.7,9.7,0,0,1-2.443,7.031,8.623,8.623,0,0,1-6.5,2.531,8.565,8.565,0,0,1-6.486-2.531,9.746,9.746,0,0,1-2.426-7.031v-7.172a9.816,9.816,0,0,1,2.426-7.04,8.5,8.5,0,0,1,6.469-2.558,8.612,8.612,0,0,1,6.5,2.558,9.731,9.731,0,0,1,2.461,7.04Zm-4.975-7.226a7.026,7.026,0,0,0-1.02-4.152,3.444,3.444,0,0,0-2.971-1.4A3.378,3.378,0,0,0,167.5-20.58a7.214,7.214,0,0,0-.984,4.16v7.228a7.152,7.152,0,0,0,1,4.178,3.406,3.406,0,0,0,2.953,1.393,3.434,3.434,0,0,0,2.953-1.393,7.056,7.056,0,0,0,1.02-4.178Zm19.6,9.74a3.431,3.431,0,0,0-.773-2.364,7.876,7.876,0,0,0-2.725-1.714,18.012,18.012,0,0,1-5.985-3.155,6.264,6.264,0,0,1-2-4.948,6.418,6.418,0,0,1,2.32-5.124,8.813,8.813,0,0,1,5.924-1.978,8.2,8.2,0,0,1,5.941,2.206,7.183,7.183,0,0,1,2.215,5.563l-.035.105H194.08a4.4,4.4,0,0,0-.879-2.848,3,3,0,0,0-2.479-1.09,3.011,3.011,0,0,0-2.329.905,3.228,3.228,0,0,0-.835,2.276,2.648,2.648,0,0,0,.932,2.083,13.13,13.13,0,0,0,3.234,1.819,13.613,13.613,0,0,1,5.476,3.12,7.013,7.013,0,0,1,1.837,5.106,6.46,6.46,0,0,1-2.215,5.2A8.791,8.791,0,0,1,190.934.369,9.863,9.863,0,0,1,184.6-1.767,7.157,7.157,0,0,1,182-7.893L182.039-8h4.869a4.8,4.8,0,0,0,1,3.41,4.024,4.024,0,0,0,3.023,1.037,3.013,3.013,0,0,0,2.347-.844A3.275,3.275,0,0,0,194.045-6.68Zm21.023-2.514V0h-5.01V-25.594h8.895A8.068,8.068,0,0,1,225-23.329a8.127,8.127,0,0,1,2.215,5.935,8.1,8.1,0,0,1-2.224,5.944,8.092,8.092,0,0,1-6.038,2.256Zm0-3.99h3.885a2.817,2.817,0,0,0,2.443-1.18,5.023,5.023,0,0,0,.844-2.995,5.218,5.218,0,0,0-.835-3.039,2.792,2.792,0,0,0-2.452-1.207h-3.885Zm32.59,3.99a9.7,9.7,0,0,1-2.443,7.031,8.623,8.623,0,0,1-6.5,2.531,8.565,8.565,0,0,1-6.486-2.531A9.746,9.746,0,0,1,229.8-9.193v-7.172a9.816,9.816,0,0,1,2.426-7.04,8.5,8.5,0,0,1,6.469-2.558,8.612,8.612,0,0,1,6.5,2.558,9.731,9.731,0,0,1,2.461,7.04Zm-4.975-7.226a7.026,7.026,0,0,0-1.02-4.152,3.444,3.444,0,0,0-2.971-1.4,3.378,3.378,0,0,0-2.953,1.393,7.214,7.214,0,0,0-.984,4.16v7.228a7.152,7.152,0,0,0,1,4.178,3.406,3.406,0,0,0,2.953,1.393,3.434,3.434,0,0,0,2.953-1.393,7.056,7.056,0,0,0,1.02-4.178ZM250.91,0V-25.594h7.734a8.212,8.212,0,0,1,6.5,2.979,11.339,11.339,0,0,1,2.566,7.673v4.307a11.3,11.3,0,0,1-2.566,7.664A8.222,8.222,0,0,1,258.645,0Zm5.01-21.6V-3.99h2.443a3.592,3.592,0,0,0,3.226-1.821,9.051,9.051,0,0,0,1.134-4.83v-4.346a8.966,8.966,0,0,0-1.134-4.8,3.6,3.6,0,0,0-3.226-1.812Zm28.828,10.371h-8.6V-3.99H286.26V0H271.143V-25.594h15.082v3.99H276.152v6.381h8.6ZM295.26-25.594,299.848-6.8h.105l4.641-18.791h6.521V0h-4.975V-7.436l.422-9.949-.105-.018L301.57,0h-3.322l-4.834-17.262-.105.018.439,9.809V0h-4.975V-25.594Zm36.879,16.4A9.7,9.7,0,0,1,329.7-2.162a8.623,8.623,0,0,1-6.5,2.531,8.565,8.565,0,0,1-6.486-2.531,9.746,9.746,0,0,1-2.426-7.031v-7.172a9.816,9.816,0,0,1,2.426-7.04,8.5,8.5,0,0,1,6.469-2.558,8.612,8.612,0,0,1,6.5,2.558,9.731,9.731,0,0,1,2.461,7.04Zm-4.975-7.226a7.026,7.026,0,0,0-1.02-4.152,3.444,3.444,0,0,0-2.971-1.4,3.378,3.378,0,0,0-2.953,1.393,7.214,7.214,0,0,0-.984,4.16v7.228a7.152,7.152,0,0,0,1,4.178,3.406,3.406,0,0,0,2.953,1.393,3.434,3.434,0,0,0,2.953-1.393,7.056,7.056,0,0,0,1.02-4.178Zm19.6,9.74a3.431,3.431,0,0,0-.773-2.364,7.876,7.876,0,0,0-2.725-1.714,18.012,18.012,0,0,1-5.985-3.155,6.264,6.264,0,0,1-2-4.948,6.418,6.418,0,0,1,2.32-5.124,8.813,8.813,0,0,1,5.924-1.978,8.2,8.2,0,0,1,5.941,2.206,7.183,7.183,0,0,1,2.215,5.563l-.035.105H346.8a4.4,4.4,0,0,0-.879-2.848,3,3,0,0,0-2.479-1.09,3.011,3.011,0,0,0-2.329.905,3.228,3.228,0,0,0-.835,2.276,2.648,2.648,0,0,0,.932,2.083,13.13,13.13,0,0,0,3.234,1.819,13.613,13.613,0,0,1,5.476,3.12,7.013,7.013,0,0,1,1.837,5.106,6.46,6.46,0,0,1-2.215,5.2A8.791,8.791,0,0,1,343.652.369a9.863,9.863,0,0,1-6.337-2.136,7.157,7.157,0,0,1-2.593-6.126L334.758-8h4.869a4.8,4.8,0,0,0,1,3.41,4.024,4.024,0,0,0,3.023,1.037A3.013,3.013,0,0,0,346-4.395,3.275,3.275,0,0,0,346.764-6.68Z" transform="translate(500 825)" fill="#009cdf"/><path d="M18.5-11.448H14.553l-.864,3.7h3.537v2.7H13.041L11.8,0H8.883l1.269-5.049H6.912L5.7,0H2.781L4.023-5.049H1v-2.7H4.671l.891-3.7H2.268v-2.538H6.183L7.452-19.17h2.916l-1.3,5.184h3.24l1.242-5.184H16.47L15.2-13.986H18.5Zm-7.7,3.7.864-3.7H8.451l-.891,3.7ZM37.1,0V-12.69L32.157-3.24H30.132l-4.941-9.45V0H21.465V-19.17h4l5.67,10.908L36.855-19.17h3.969V0ZM50.841.27a7.851,7.851,0,0,1-3.078-.581A7.058,7.058,0,0,1,45.414-1.89a7.011,7.011,0,0,1-1.5-2.322,7.452,7.452,0,0,1-.527-2.781A7.88,7.88,0,0,1,43.9-9.842a6.952,6.952,0,0,1,1.485-2.349A7.09,7.09,0,0,1,47.75-13.8a7.864,7.864,0,0,1,3.118-.594,7.669,7.669,0,0,1,3.091.594A7.109,7.109,0,0,1,56.282-12.2,6.77,6.77,0,0,1,57.74-9.882a7.733,7.733,0,0,1,.5,2.754q0,.351-.013.675a2.746,2.746,0,0,1-.068.54H47.223a4.2,4.2,0,0,0,.4,1.485,3.67,3.67,0,0,0,.837,1.107,3.645,3.645,0,0,0,1.161.7,3.813,3.813,0,0,0,1.35.243A4.171,4.171,0,0,0,53.015-2.9a2.787,2.787,0,0,0,1.31-1.391l3.1.864a6.312,6.312,0,0,1-2.5,2.66A7.741,7.741,0,0,1,50.841.27Zm3.672-8.532a3.761,3.761,0,0,0-1.174-2.551,3.59,3.59,0,0,0-2.525-.958,3.6,3.6,0,0,0-1.363.256,3.558,3.558,0,0,0-1.121.716,3.708,3.708,0,0,0-.8,1.107,3.9,3.9,0,0,0-.365,1.431ZM59.292,5.292a6.027,6.027,0,0,1-1.944-.311A4.743,4.743,0,0,1,55.7,4.023l1.566-2.457A1.875,1.875,0,0,0,58,2.012a2.643,2.643,0,0,0,.864.148,1.683,1.683,0,0,0,1.215-.5A1.712,1.712,0,0,0,60.588.378V-14.148h3.618V.108A5.654,5.654,0,0,1,63.828,2.2a4.987,4.987,0,0,1-1.039,1.647,4.611,4.611,0,0,1-1.566,1.067A4.956,4.956,0,0,1,59.292,5.292Zm1.3-21.411V-19.71h3.618v3.591ZM74.034.27a7.766,7.766,0,0,1-3.105-.594,6.974,6.974,0,0,1-2.335-1.607,7.091,7.091,0,0,1-1.472-2.336,7.625,7.625,0,0,1-.513-2.781,7.7,7.7,0,0,1,.513-2.808,7.091,7.091,0,0,1,1.472-2.336A6.974,6.974,0,0,1,70.929-13.8a7.766,7.766,0,0,1,3.105-.594,7.669,7.669,0,0,1,3.091.594,7.007,7.007,0,0,1,2.322,1.606,7.091,7.091,0,0,1,1.471,2.336,7.7,7.7,0,0,1,.513,2.808,7.625,7.625,0,0,1-.513,2.781,7.206,7.206,0,0,1-1.458,2.336A6.828,6.828,0,0,1,77.139-.324,7.766,7.766,0,0,1,74.034.27Zm-3.7-7.317a4.929,4.929,0,0,0,.284,1.715A4.189,4.189,0,0,0,71.4-4a3.5,3.5,0,0,0,1.174.878,3.446,3.446,0,0,0,1.458.31,3.446,3.446,0,0,0,1.458-.31A3.5,3.5,0,0,0,76.667-4a4.159,4.159,0,0,0,.783-1.35,5.044,5.044,0,0,0,.283-1.728,4.961,4.961,0,0,0-.283-1.7,4.159,4.159,0,0,0-.783-1.35A3.5,3.5,0,0,0,75.492-11a3.447,3.447,0,0,0-1.458-.311,3.325,3.325,0,0,0-1.458.324A3.664,3.664,0,0,0,71.4-10.1a4.159,4.159,0,0,0-.783,1.35A4.961,4.961,0,0,0,70.335-7.047Zm21.951-3.969a7.136,7.136,0,0,0-2.943.635A3.714,3.714,0,0,0,87.48-8.559V0H83.862V-14.148h3.321v3.024a6.45,6.45,0,0,1,.891-1.31,6.871,6.871,0,0,1,1.107-1.012,5.133,5.133,0,0,1,1.2-.661,3.316,3.316,0,0,1,1.174-.229H92a1.443,1.443,0,0,1,.284.027ZM97.983.27a5.367,5.367,0,0,1-1.917-.338,4.608,4.608,0,0,1-1.539-.945A4.4,4.4,0,0,1,93.515-2.43a4.293,4.293,0,0,1-.364-1.782,3.926,3.926,0,0,1,.445-1.85,4.241,4.241,0,0,1,1.242-1.444,6.157,6.157,0,0,1,1.9-.931,8.3,8.3,0,0,1,2.43-.338,10.471,10.471,0,0,1,1.85.162,7.533,7.533,0,0,1,1.606.459v-.81a2.836,2.836,0,0,0-.8-2.16,3.312,3.312,0,0,0-2.363-.756,6.257,6.257,0,0,0-2.214.405,10.281,10.281,0,0,0-2.214,1.188l-1.107-2.3a10.445,10.445,0,0,1,5.886-1.809,6.9,6.9,0,0,1,4.739,1.5,5.491,5.491,0,0,1,1.688,4.334v4.4a1.271,1.271,0,0,0,.2.81.887.887,0,0,0,.661.27V0a8.055,8.055,0,0,1-1.593.189,2.412,2.412,0,0,1-1.579-.459,1.973,1.973,0,0,1-.688-1.215l-.081-.783a6.261,6.261,0,0,1-2.295,1.89A6.59,6.59,0,0,1,97.983.27Zm1.026-2.646a4.713,4.713,0,0,0,1.742-.324,3.161,3.161,0,0,0,1.283-.864,1.3,1.3,0,0,0,.594-1.026V-6.21a8.858,8.858,0,0,0-1.4-.392,7.562,7.562,0,0,0-1.458-.148,3.865,3.865,0,0,0-2.295.635,1.905,1.905,0,0,0-.891,1.606,1.933,1.933,0,0,0,.7,1.526A2.548,2.548,0,0,0,99.009-2.376Zm19.035-8.64a7.136,7.136,0,0,0-2.943.635,3.714,3.714,0,0,0-1.863,1.823V0H109.62V-14.148h3.321v3.024a6.45,6.45,0,0,1,.891-1.31,6.871,6.871,0,0,1,1.107-1.012,5.133,5.133,0,0,1,1.2-.661,3.316,3.316,0,0,1,1.174-.229h.445a1.443,1.443,0,0,1,.284.027Zm4.347-8.154,5.184,14.5,5.13-14.5h3.915L129.141,0h-3.132l-7.533-19.17ZM138.321,0V-14.148h3.618V0Zm0-16.119V-19.71h3.618v3.591Zm6.858-3.591H148.8V-4.536a1.786,1.786,0,0,0,.378,1.215,1.358,1.358,0,0,0,1.08.432A2.71,2.71,0,0,0,150.971-3a4.84,4.84,0,0,0,.743-.27L152.2-.513a7,7,0,0,1-1.7.54,9.28,9.28,0,0,1-1.755.189,3.623,3.623,0,0,1-2.633-.9,3.429,3.429,0,0,1-.932-2.579Zm8.559,0h3.618V-4.536a1.786,1.786,0,0,0,.378,1.215,1.358,1.358,0,0,0,1.08.432A2.71,2.71,0,0,0,159.53-3a4.84,4.84,0,0,0,.743-.27l.486,2.754a7,7,0,0,1-1.7.54A9.28,9.28,0,0,1,157.3.216a3.623,3.623,0,0,1-2.633-.9,3.429,3.429,0,0,1-.932-2.579ZM166.185.27a5.367,5.367,0,0,1-1.917-.338,4.608,4.608,0,0,1-1.539-.945,4.4,4.4,0,0,1-1.012-1.418,4.293,4.293,0,0,1-.365-1.782,3.926,3.926,0,0,1,.445-1.85,4.241,4.241,0,0,1,1.242-1.444,6.157,6.157,0,0,1,1.9-.931,8.3,8.3,0,0,1,2.43-.338,10.47,10.47,0,0,1,1.85.162,7.533,7.533,0,0,1,1.606.459v-.81a2.836,2.836,0,0,0-.8-2.16,3.312,3.312,0,0,0-2.363-.756,6.257,6.257,0,0,0-2.214.405,10.281,10.281,0,0,0-2.214,1.188l-1.107-2.3a10.445,10.445,0,0,1,5.886-1.809,6.9,6.9,0,0,1,4.739,1.5,5.491,5.491,0,0,1,1.688,4.334v4.4a1.271,1.271,0,0,0,.2.81.887.887,0,0,0,.661.27V0a8.055,8.055,0,0,1-1.593.189,2.412,2.412,0,0,1-1.579-.459,1.973,1.973,0,0,1-.689-1.215l-.081-.783a6.262,6.262,0,0,1-2.295,1.89A6.59,6.59,0,0,1,166.185.27Zm1.026-2.646a4.713,4.713,0,0,0,1.742-.324,3.161,3.161,0,0,0,1.283-.864,1.3,1.3,0,0,0,.594-1.026V-6.21a8.858,8.858,0,0,0-1.4-.392,7.562,7.562,0,0,0-1.458-.148,3.865,3.865,0,0,0-2.295.635,1.905,1.905,0,0,0-.891,1.606,1.933,1.933,0,0,0,.7,1.526A2.548,2.548,0,0,0,167.211-2.376ZM183.627-19.17h3.294L194.211,0h-3.834L188.6-4.779h-6.7L180.144,0H176.31ZM187.92-7.4l-2.646-7.533L182.52-7.4Zm8.019-12.312h3.618V-4.536a1.786,1.786,0,0,0,.378,1.215,1.358,1.358,0,0,0,1.08.432A2.71,2.71,0,0,0,201.731-3a4.84,4.84,0,0,0,.743-.27l.486,2.754a7,7,0,0,1-1.7.54A9.28,9.28,0,0,1,199.5.216a3.623,3.623,0,0,1-2.633-.9,3.429,3.429,0,0,1-.932-2.579Zm8.559,0h3.618V-4.536a1.786,1.786,0,0,0,.378,1.215,1.358,1.358,0,0,0,1.08.432A2.71,2.71,0,0,0,210.29-3a4.84,4.84,0,0,0,.743-.27l.486,2.754a7,7,0,0,1-1.7.54,9.28,9.28,0,0,1-1.755.189,3.623,3.623,0,0,1-2.633-.9,3.429,3.429,0,0,1-.932-2.579ZM219.645.27a7.851,7.851,0,0,1-3.078-.581,7.058,7.058,0,0,1-2.349-1.579,7.011,7.011,0,0,1-1.5-2.322,7.452,7.452,0,0,1-.527-2.781,7.88,7.88,0,0,1,.513-2.849,6.952,6.952,0,0,1,1.485-2.349,7.09,7.09,0,0,1,2.363-1.606,7.864,7.864,0,0,1,3.118-.594,7.669,7.669,0,0,1,3.092.594,7.109,7.109,0,0,1,2.322,1.593,6.77,6.77,0,0,1,1.458,2.322,7.733,7.733,0,0,1,.5,2.754q0,.351-.014.675a2.747,2.747,0,0,1-.067.54H216.027a4.2,4.2,0,0,0,.4,1.485,3.67,3.67,0,0,0,.837,1.107,3.646,3.646,0,0,0,1.161.7,3.814,3.814,0,0,0,1.35.243,4.171,4.171,0,0,0,2.038-.526,2.787,2.787,0,0,0,1.309-1.391l3.105.864a6.312,6.312,0,0,1-2.5,2.66A7.741,7.741,0,0,1,219.645.27Zm3.672-8.532a3.761,3.761,0,0,0-1.174-2.551,3.59,3.59,0,0,0-2.525-.958,3.6,3.6,0,0,0-1.363.256,3.558,3.558,0,0,0-1.12.716,3.708,3.708,0,0,0-.8,1.107,3.9,3.9,0,0,0-.365,1.431ZM242.406,0h-3.618V-7.938a4.135,4.135,0,0,0-.594-2.484,1.951,1.951,0,0,0-1.647-.783,3.1,3.1,0,0,0-1.107.216,4.074,4.074,0,0,0-1.066.608,4.942,4.942,0,0,0-.9.931,3.683,3.683,0,0,0-.594,1.188V0h-3.618V-14.148h3.267v2.619a5.359,5.359,0,0,1,2.268-2.106,7.274,7.274,0,0,1,3.348-.756,4.264,4.264,0,0,1,2.16.486,3.51,3.51,0,0,1,1.3,1.269,5.307,5.307,0,0,1,.634,1.782,11.681,11.681,0,0,1,.176,2.025Zm9.018.27a6.424,6.424,0,0,1-2.7-.567,6.367,6.367,0,0,1-2.133-1.566A7.318,7.318,0,0,1,245.2-4.2a8.148,8.148,0,0,1-.5-2.876,8.45,8.45,0,0,1,.472-2.862,7.512,7.512,0,0,1,1.31-2.322,6.036,6.036,0,0,1,2-1.566,5.705,5.705,0,0,1,2.538-.567,5.363,5.363,0,0,1,2.822.756,5.476,5.476,0,0,1,1.958,1.971V-19.71h3.618V-4.158a1.34,1.34,0,0,0,.189.81.84.84,0,0,0,.648.27V0a8.2,8.2,0,0,1-1.539.189A2.508,2.508,0,0,1,257.121-.3a1.783,1.783,0,0,1-.7-1.269l-.081-.891a5.132,5.132,0,0,1-2.12,2.039A6.024,6.024,0,0,1,251.424.27Zm.945-3.078a3.4,3.4,0,0,0,1.053-.176,3.711,3.711,0,0,0,1-.5,4.373,4.373,0,0,0,.824-.756,3.141,3.141,0,0,0,.553-.945V-8.559a3.95,3.95,0,0,0-.607-1.094,4.5,4.5,0,0,0-.891-.864,4.649,4.649,0,0,0-1.053-.58,2.993,2.993,0,0,0-1.094-.216,3.251,3.251,0,0,0-1.5.351A3.558,3.558,0,0,0,249.48-10a4.611,4.611,0,0,0-.756,1.391,4.935,4.935,0,0,0-.27,1.62,4.465,4.465,0,0,0,.3,1.647,4.287,4.287,0,0,0,.81,1.323,3.688,3.688,0,0,0,1.229.891A3.785,3.785,0,0,0,252.369-2.808ZM269.541.27a7.851,7.851,0,0,1-3.078-.581,7.058,7.058,0,0,1-2.349-1.579,7.011,7.011,0,0,1-1.5-2.322,7.452,7.452,0,0,1-.526-2.781,7.88,7.88,0,0,1,.513-2.849,6.952,6.952,0,0,1,1.485-2.349A7.09,7.09,0,0,1,266.45-13.8a7.864,7.864,0,0,1,3.119-.594,7.669,7.669,0,0,1,3.091.594,7.109,7.109,0,0,1,2.322,1.593,6.77,6.77,0,0,1,1.458,2.322,7.733,7.733,0,0,1,.5,2.754q0,.351-.013.675a2.745,2.745,0,0,1-.068.54H265.923a4.2,4.2,0,0,0,.4,1.485,3.67,3.67,0,0,0,.837,1.107,3.646,3.646,0,0,0,1.161.7,3.813,3.813,0,0,0,1.35.243,4.171,4.171,0,0,0,2.039-.526,2.787,2.787,0,0,0,1.31-1.391l3.1.864a6.312,6.312,0,0,1-2.5,2.66A7.741,7.741,0,0,1,269.541.27Zm3.672-8.532a3.761,3.761,0,0,0-1.174-2.551,3.59,3.59,0,0,0-2.525-.958,3.6,3.6,0,0,0-1.363.256,3.558,3.558,0,0,0-1.121.716,3.708,3.708,0,0,0-.8,1.107,3.9,3.9,0,0,0-.365,1.431Z" transform="translate(544.765 859.865)" fill="#065093"/><path d="M18.5-11.448H14.553l-.864,3.7h3.537v2.7H13.041L11.8,0H8.883l1.269-5.049H6.912L5.7,0H2.781L4.023-5.049H1v-2.7H4.671l.891-3.7H2.268v-2.538H6.183L7.452-19.17h2.916l-1.3,5.184h3.24l1.242-5.184H16.47L15.2-13.986H18.5Zm-7.7,3.7.864-3.7H8.451l-.891,3.7ZM34.776-3.267V0H21.465V-19.17H34.533V-15.9H25.191v4.617h8.073v3.024H25.191v5ZM50.328,0H46.71V-7.938a4.135,4.135,0,0,0-.594-2.484,1.951,1.951,0,0,0-1.647-.783,3.1,3.1,0,0,0-1.107.216,4.074,4.074,0,0,0-1.067.608,4.942,4.942,0,0,0-.9.931A3.683,3.683,0,0,0,40.8-8.262V0H37.179V-14.148h3.267v2.619a5.359,5.359,0,0,1,2.268-2.106,7.274,7.274,0,0,1,3.348-.756,4.264,4.264,0,0,1,2.16.486,3.51,3.51,0,0,1,1.3,1.269,5.307,5.307,0,0,1,.635,1.782,11.681,11.681,0,0,1,.175,2.025ZM69.471,0V-12.69L64.53-3.24H62.505l-4.941-9.45V0H53.838V-19.17h4L63.5-8.262,69.228-19.17H73.2V0ZM83.187.27a7.766,7.766,0,0,1-3.105-.594,6.974,6.974,0,0,1-2.335-1.607,7.091,7.091,0,0,1-1.472-2.336,7.625,7.625,0,0,1-.513-2.781,7.7,7.7,0,0,1,.513-2.808,7.091,7.091,0,0,1,1.472-2.336A6.974,6.974,0,0,1,80.082-13.8a7.766,7.766,0,0,1,3.105-.594,7.669,7.669,0,0,1,3.091.594A7.007,7.007,0,0,1,88.6-12.191a7.091,7.091,0,0,1,1.471,2.336,7.7,7.7,0,0,1,.513,2.808,7.625,7.625,0,0,1-.513,2.781,7.206,7.206,0,0,1-1.458,2.336A6.828,6.828,0,0,1,86.292-.324,7.766,7.766,0,0,1,83.187.27Zm-3.7-7.317a4.929,4.929,0,0,0,.284,1.715A4.189,4.189,0,0,0,80.555-4a3.5,3.5,0,0,0,1.174.878,3.446,3.446,0,0,0,1.458.31,3.446,3.446,0,0,0,1.458-.31A3.5,3.5,0,0,0,85.82-4a4.159,4.159,0,0,0,.783-1.35,5.044,5.044,0,0,0,.283-1.728,4.961,4.961,0,0,0-.283-1.7,4.159,4.159,0,0,0-.783-1.35A3.5,3.5,0,0,0,84.645-11a3.447,3.447,0,0,0-1.458-.311,3.325,3.325,0,0,0-1.458.324,3.664,3.664,0,0,0-1.174.891,4.159,4.159,0,0,0-.783,1.35A4.961,4.961,0,0,0,79.488-7.047ZM96.309,0,91.1-14.148h3.726L98.415-2.943l3.618-11.205h3.4L100.224,0Zm11.016,0V-14.148h3.618V0Zm0-16.119V-19.71h3.618v3.591ZM136.188,0H132.57V-7.938a4.21,4.21,0,0,0-.581-2.484,1.888,1.888,0,0,0-1.606-.783,3.033,3.033,0,0,0-2.025.824,4.534,4.534,0,0,0-1.35,2.146V0H123.39V-7.938a4.21,4.21,0,0,0-.581-2.484,1.888,1.888,0,0,0-1.606-.783,3.08,3.08,0,0,0-2.011.81,4.4,4.4,0,0,0-1.364,2.133V0H114.21V-14.148h3.267v2.619a5.4,5.4,0,0,1,2.146-2.12,6.415,6.415,0,0,1,3.118-.743,4.009,4.009,0,0,1,2.754.864,3.86,3.86,0,0,1,1.242,2.133,6.113,6.113,0,0,1,2.187-2.227,5.9,5.9,0,0,1,3.024-.77,4.2,4.2,0,0,1,2.133.486,3.51,3.51,0,0,1,1.3,1.269,5.308,5.308,0,0,1,.635,1.782,11.682,11.682,0,0,1,.175,2.025Zm3.159,0V-14.148h3.618V0Zm0-16.119V-19.71h3.618v3.591ZM152.793.27a7.851,7.851,0,0,1-3.078-.581,7.058,7.058,0,0,1-2.349-1.579,7.011,7.011,0,0,1-1.5-2.322,7.452,7.452,0,0,1-.527-2.781,7.88,7.88,0,0,1,.513-2.849,6.952,6.952,0,0,1,1.485-2.349A7.09,7.09,0,0,1,149.7-13.8a7.864,7.864,0,0,1,3.118-.594,7.669,7.669,0,0,1,3.092.594,7.109,7.109,0,0,1,2.322,1.593,6.77,6.77,0,0,1,1.458,2.322,7.733,7.733,0,0,1,.5,2.754q0,.351-.014.675a2.747,2.747,0,0,1-.067.54H149.175a4.2,4.2,0,0,0,.4,1.485,3.67,3.67,0,0,0,.837,1.107,3.646,3.646,0,0,0,1.161.7,3.814,3.814,0,0,0,1.35.243,4.171,4.171,0,0,0,2.038-.526,2.787,2.787,0,0,0,1.309-1.391l3.105.864a6.312,6.312,0,0,1-2.5,2.66A7.741,7.741,0,0,1,152.793.27Zm3.672-8.532a3.761,3.761,0,0,0-1.174-2.551,3.59,3.59,0,0,0-2.525-.958,3.6,3.6,0,0,0-1.363.256,3.558,3.558,0,0,0-1.12.716,3.708,3.708,0,0,0-.8,1.107,3.9,3.9,0,0,0-.365,1.431ZM175.554,0h-3.618V-7.938a4.135,4.135,0,0,0-.594-2.484,1.951,1.951,0,0,0-1.647-.783,3.1,3.1,0,0,0-1.107.216,4.074,4.074,0,0,0-1.066.608,4.942,4.942,0,0,0-.9.931,3.683,3.683,0,0,0-.594,1.188V0h-3.618V-14.148h3.267v2.619a5.359,5.359,0,0,1,2.268-2.106,7.274,7.274,0,0,1,3.348-.756,4.264,4.264,0,0,1,2.16.486,3.51,3.51,0,0,1,1.3,1.269,5.307,5.307,0,0,1,.634,1.782,11.681,11.681,0,0,1,.176,2.025Zm11.5-.729a16.146,16.146,0,0,1-1.782.648,7.486,7.486,0,0,1-2.214.324,5.139,5.139,0,0,1-1.417-.189,3.117,3.117,0,0,1-1.161-.607,2.967,2.967,0,0,1-.8-1.08,3.909,3.909,0,0,1-.3-1.607v-8.127h-1.863v-2.781h1.863v-4.59h3.618v4.59h2.97v2.781h-2.97v6.912a1.286,1.286,0,0,0,.392,1.067,1.494,1.494,0,0,0,.958.31,3.328,3.328,0,0,0,1.107-.189q.54-.189.864-.324Zm8.073,1a7.766,7.766,0,0,1-3.1-.594,6.974,6.974,0,0,1-2.336-1.607,7.091,7.091,0,0,1-1.471-2.336,7.625,7.625,0,0,1-.513-2.781,7.7,7.7,0,0,1,.513-2.808,7.091,7.091,0,0,1,1.471-2.336,6.974,6.974,0,0,1,2.336-1.606,7.766,7.766,0,0,1,3.1-.594,7.669,7.669,0,0,1,3.092.594,7.007,7.007,0,0,1,2.322,1.606,7.091,7.091,0,0,1,1.471,2.336,7.7,7.7,0,0,1,.513,2.808,7.625,7.625,0,0,1-.513,2.781,7.206,7.206,0,0,1-1.458,2.336,6.828,6.828,0,0,1-2.322,1.607A7.766,7.766,0,0,1,195.129.27Zm-3.7-7.317a4.929,4.929,0,0,0,.284,1.715A4.189,4.189,0,0,0,192.5-4a3.5,3.5,0,0,0,1.174.878,3.446,3.446,0,0,0,1.458.31,3.446,3.446,0,0,0,1.458-.31A3.5,3.5,0,0,0,197.762-4a4.159,4.159,0,0,0,.783-1.35,5.043,5.043,0,0,0,.284-1.728,4.961,4.961,0,0,0-.284-1.7,4.159,4.159,0,0,0-.783-1.35A3.5,3.5,0,0,0,196.587-11a3.446,3.446,0,0,0-1.458-.311,3.325,3.325,0,0,0-1.458.324,3.664,3.664,0,0,0-1.174.891,4.159,4.159,0,0,0-.783,1.35A4.961,4.961,0,0,0,191.43-7.047Z" transform="translate(581.613 891.078)" fill="#065093"/><g transform="translate(-296.472 -90.316)"><path d="M812.655,742.236c-1.683.394-2.905,2.365-5.126,1.5,1.063-2.309,3.118-2.564,5.126-2.908Z" transform="translate(850.075 33.423)" fill="#4489bd"/><path d="M773.345,732.047c-1.158-.043-2.647-.309-2.17-1.664.367-1.052,1.779-1.926,2.921-2.474,1.625-.78,1.824.671,1.909,1.752C776.152,731.517,774.653,731.707,773.345,732.047Z" transform="translate(789.468 11.574)" fill="#ce0022"/><path d="M775.347,730.776c-.439-.163-1.893.378-1.656-.884.232-1.228.991-2.849,1.973-3.3.953-.437,1.966,1.06,2.045,2.21C777.794,730.035,777.109,730.97,775.347,730.776Z" transform="translate(793.76 9.626)" fill="#d21424"/><path d="M785.278,757.237a71.9,71.9,0,0,1,22.374-3.2c1.446-.442,1.829.192,1.536,1.515-13.594,2.45-27.053,6.3-41.113,4.066,2.032-2.29,4.679-1.049,7.078-1.238C778.41,756.949,782.034,758.779,785.278,757.237Z" transform="translate(784.465 55.165)" fill="#e1e4ea"/><path d="M793.466,769.34a11.937,11.937,0,0,1-8.873,1.092c1.784-3.233,4.569-2.5,7.086-2.5C792.31,768.355,793.2,768.448,793.466,769.34Z" transform="translate(811.933 78.381)" fill="#c2c8de"/><path d="M784.472,756.285c-.511-.5-1.023-1.009-1.534-1.512,2.49-1.369,4.964-2.173,7.342.218C788.448,755.888,786.594,756.693,784.472,756.285Z" transform="translate(809.181 54.437)" fill="#9fb0cb"/><path d="M785.505,769.042c-2.261,1.923-4.9.927-7.411.975C780.432,768.68,782.964,768.843,785.505,769.042Z" transform="translate(801.126 80.122)" fill="#a0a9cd"/><g transform="translate(296.34 794.96)"><path d="M302.237,765.776a1.652,1.652,0,0,0,.826.367Z" transform="translate(-286.533 -720.048)" fill="#004181"/><path d="M1648.643,751.821c-16.38,3.512-33.092,5.262-49.331,9.456a18.315,18.315,0,0,1-6.788,1.422c-13.141,2.1-26.137,5.954-39.68,3.47a38.986,38.986,0,0,0-11.885-.8c-26.7,1.864-53.381,2.788-79.915-2.1-2.737-.506-5.611-1.07-8,1.185-3.861,1.427-7.888.772-11.823.772q-156.233.088-312.464.037-157.659-.084-315.316-.328c-61.7-.051-123.414-.751-185.1.138-88.314,1.276-176.768-4.966-264.941,5.208a595,595,0,0,0-61.682,10.157c-3.685.823-5.9,2.061-5.273,6.42a52.6,52.6,0,0,1,.069,9.139c-.112,3.377,2.138,2.149,3.819,2.088h0c3.531-2.4,7.656-2.969,11.706-3.757,10.292-3.275,19.823-8.889,30.807-10.037l0,0v0c2.088-1.672,4.58-1.616,7.054-1.635,2.418-2.112,5.344-1.334,8.1-1.75-2.194,2.65-5.291,2.442-8.069,3.148h0q-3.555,1.378-7.107,2.761v0l0,0c-9.1,3.251-17.951,7.278-27.567,8.95a49.4,49.4,0,0,1-13.211,3.779c-4.359.791-6.151,3.132-5.619,7.765a84.71,84.71,0,0,1,.061,12.6c-.1,2.841.365,4.54,3.8,3.566,14.5-4.12,30.16-4.117,43.566-12.21.344-.208,1.145.338,2.192.687-2.519,4.564-6.91,5.741-10.918,7.193-9.669,3.5-19.724,5.563-29.766,7.717-2.937.629-7.179-.1-8.5,4.256,2.993,4.12,6.5,1.254,9.829.705a46.2,46.2,0,0,1,11.416-2.727c9.336-2.106,18.8-3.574,28.185-5.419a41.192,41.192,0,0,1,8.178-1.422,16.264,16.264,0,0,0,1.981-.49c2.873-.943,5.933-.442,8.825-1.2.983-.242,1.963-.514,2.945-.759,2.434-.477,4.807-1.291,7.3-1.409,1.382-.162,2.708-.69,4.074-.881,10.471-1.47,20.8-5.366,31.569-1.941,15.386-.165,30.618,1.944,45.922,3,15.6,1.076,31.313-.383,46.961.674,2.421.162,4.705.069,6.2-2.253,3.273-.125,6.543-.357,9.816-.357q485.448-.024,970.9-.12c34.381-.019,68.744.591,103.056-4.817,22.869-3.6,46.05-5.35,68.7-10.572v-16.9c-17.027,4.412-32.855,12.891-50.7,14.625a281.388,281.388,0,0,1,50.7-17.442V758.88c-13.123,2.168-26.211,4.5-38.884,8.686h0a16.941,16.941,0,0,1-7.035,3.9c-.043-3.837,2.695-4.554,5.123-5.542,7.424-5.512,16.436-6.359,25.016-8.383,5.2-1.225,10.516-1.941,15.78-2.887v-5.635C1657.559,747.432,1653.306,750.819,1648.643,751.821ZM406.386,774.4c-1.43.535-2.69,1.686-4.4,1.193l-3.779.423h0c-1.851,1.3-3.922,1.289-6.037,1h0l-6.86.24h0c-3.023,2.407-6.633,1.169-9.97,1.616-2.788,1.808-5.763,1.161-8.918.8,1.643-2.511,3.931-2.527,6.3-2.314l12.556-1.313q2.656-.22,5.307-.437a5.267,5.267,0,0,1,4.695-.975l5.163-.45c1.758-1.377,3.875-1.233,5.917-1.414,1.417-1.459,2.988-1.55,4.78-.546A7.344,7.344,0,0,1,406.386,774.4Zm1136.935,34.911a34.57,34.57,0,0,1,15.666-.74C1554.271,808.837,1549.875,812.139,1543.321,809.313Zm18.366-1.377-.288-2.013,17.82-2.141c2.365-1.129,5.041.112,7.411-.975h6.194C1582.658,806.35,1572.193,807.306,1561.688,807.937Zm43.712-6.572-1.787-1.406a11.4,11.4,0,0,1,2.037-.477c1.4-.075,3.734-1.88,3.837.8C1609.546,801.817,1606.883,801.194,1605.4,801.365Z" transform="translate(-296.34 -748.604)" fill="#004181"/><path d="M334.266,758.744l-.772-.365A1.533,1.533,0,0,0,334.266,758.744Z" transform="translate(-234.555 -732.349)" fill="#004181"/></g><path d="M780.856,755.165c-3.14,2.45-6.727.943-10.122,1.148C773.953,754.563,777.461,755.359,780.856,755.165Z" transform="translate(788.887 57.237)" fill="#cfd6e2"/><path d="M809.489,736.671l-5.771-.815c3.611-.927,6.037-1.606,8.178.591Z" transform="translate(843.737 23.7)" fill="#d9001c"/><path d="M961.546,751.027V736.942c-2.021-1.774-4.452-1.979-6.977-1.811a16.851,16.851,0,0,0-3.621.57c-9.864,1.587-19.847-.3-29.726,1.084-2.061.743-4.069,1.622-6.112,2.485l4.125-.032c-4.788,1.989-9.576,3.981-15.621,6.495,1.249-4.436,4.221-5.208,6.809-6.327a11.711,11.711,0,0,0,.136-1.409c-6.072-1.747-11.965-5.2-18.574-1.987-15.844,3.986-31.641,8.82-48.172,7.925-8.109-.439-16.177-1.776-24.363-1.635-16.859.29-33.713.634-50.457-2.263-8.287-1.435-16.721-2.008-25.021-3.379-3.741-.62-5.289.378-5.166,4.082,2.114,1.329,6.575-.791,6.58,2.162.008,3.568-4.338,2.1-6.83,2.7-1.129.275-2.338.232-3.467.509-3.864.943-4.146,1.382-2.615,5.35.551,1.425-.434,1.763-1.076,1.963-1.717.535-3.526.78-5.387,1.158,8.015,11.962-7.7,7.07-8.015,13.224,2.341,2.562,6.4,3.784,10.087,5.739,8.133,4.309,17.775,6.135,23.78,14.047,31.441,5.906,63.1,4.745,94.79,3.03,1.547-.083,3.134.61,4.7.943,2.479-.879,5.11-.027,7.605-.679,3.31-.793,6.681-.25,10.018-.466a148.75,148.75,0,0,1,20.995-3.491c2.748-.5,5.464-1.358,8.308-.722,2.5-.5,5.014-.945,7.5-1.518,18.566-4.29,37.9-5.158,55.77-12.532V752.435a1.187,1.187,0,0,0-1.734.162C959.858,751.487,961.171,751.772,961.546,751.027ZM762.774,766.751h0q-4.034-.208-8.066-.421c-2.191.445-4.106-.139-7.389-2.6,4.926.051,8.26-.743,11.554,1.193h0l5.3.416h0c3.885-.36,7.749-.578,12.944,2.727C771.183,767.648,766.944,768.8,762.774,766.751Zm68.981,17.5c2.53-1.633,4.86-.418,7.03-.256A8.9,8.9,0,0,1,831.755,784.252Zm17.16-2.176h0c-1.579,1.9-3.624,1.134-7.475,1.465,3.526-1.837,5.3-2.772,7.483-2.626,4.349-.5,8.7-1,14.364-1.646C858.078,783.128,853.348,781.735,848.915,782.076ZM895.4,775.1a22.669,22.669,0,0,1-9.911,2.6l0,0,0,0c-2.357.413-4.506,1.9-7.046,1.347h0c-3.792-.213-7.709,3.672-12.742-1.158h12.729q2.692-.823,5.384-1.651c3.563-2.173,7.85-1.07,11.563-2.564h0c1.683.075,3.1-1.755,5.041-.745C899.414,775.445,897.242,774.886,895.4,775.1Zm49.272-15.781c-1.9,2.162-4.615,2.248-7.145,2.809-11.035,3.121-21.16,9.435-33.148,9.31,10.455-3.68,20.428-8.687,31.407-10.8l.005,0c2.759-1.59,5.64-2.684,8.907-2.226h0c1.9-.6,3.558-2.17,6.365-1.307C948.966,758.773,947.137,759.83,944.674,759.324Z" transform="translate(701.184 23.224)" fill="#008cd0"/><path d="M864.105,723.838c-11.376.868-22.643-1.486-34.075-.825a132.59,132.59,0,0,1-33.849-2.285h-4.226c-2.8,4.053,2.982,3.329,3.47,5.51-2.208,2.431-5.15,1.19-7.4,2.314-1.2.6-3.339.5-3.323,2.074.069,6.687-3.078,10.974-9.618,13.081,7.043,6.258,16.073,8.676,21.961,15.527l18.67,3.3c2.884,2.876,5.715-.453,8.577-.069,10.91-1.105,21.977.269,32.807-2.09a1.9,1.9,0,0,0-1.7-.871c1.409-.077,2.849-.386,4.109.647q3.551.008,7.1.019v-5.635l-9.85,1.513h0c-1.755,1.731-3.733,1.491-6.2,1.081-.088.035-.178.061-.266.1.573.655-.754.3-.306-.195-.421-.072-.855-.144-1.3-.208,3.2-.964,5.573-1.678,7.946-2.394l9.978-2.716V724.951A3.923,3.923,0,0,0,864.105,723.838ZM800.347,743.9c3.917-2.237,3.917-2.237,8.969.216C806.3,745.187,803.59,744.556,800.347,743.9Zm53.781,15.559a2.124,2.124,0,0,1-.652-.157A3.332,3.332,0,0,0,854.127,759.458Z" transform="translate(796.124 0)" fill="#ce0022"/><path d="M543.212,797.349c-1.739-1.411-3.052-3.619-5.693-4.508a110.446,110.446,0,0,1-20.96-9.744c-2.708-1.6-6.247-2.551-6.617-6.58-1.116.24-2.293.836-3.35.671-14.223-2.213-28.565-1.318-42.767-.73s-27.74-5.147-41.952-3.046c-3.643.538-7.43.091-11.152.1-10.047-1.22-19.751,1.22-29.54,2.782-4.8,1.268-9.632,2.232-14.635,1.47-.5.357-.993.716-1.489,1.073-3.033,2.109-6.756-.269-9.839,1.5l.1-.013c-2.722,1.88-6.064-.2-8.833,1.377-9.845,1.172-19.655,2.535-29.162,5.5-3.614,1.558-7.7,1.379-11.277,3.076-3.18-.2-6.253,2.33-9.5.365q0,18.79-.011,37.577c1.614,1.725,3.7,1.7,5.8,1.521,12.668-1.094,25.356-1.856,38.059-2.652,1.574-.466,3.118-1.028,4.66-1.627l-3.129-.059c5.19-3.459,12.047-3.515,17.083-10.076.37,6.873-3.843,8.061-6.692,10.271l-.12,0a3.717,3.717,0,0,0-.008.809c2.437,3.278,6.388,1.587,9.435,2.855a13.569,13.569,0,0,0,3.068.421,4.575,4.575,0,0,0,3.736-1.419c3.012-2.285,6.767-1.614,10.127-2.274,12.817-2.522,25.532-6.569,38.738-5.672,7.568.514,14.979,2.583,22.736,2.359,22.712-.663,45.414-.74,67.828,4.032,3.635.775,7.416.841,11.12,1.326,1.755.232,2.557-.589,3.03-2.122.352-1.137.019-1.662-1.137-1.891-2.082-.418-5.776.423-5.417-2.519.328-2.671,4.285-2.008,6.652-2.722,1.542-.466,3.318-.163,4.849-.647,1.475-.463,3.473-1.18,4.005-2.349,1.087-2.391-3.595-.823-2.857-3.867l6.45-2.285C528.351,798.729,542.161,802.726,543.212,797.349Zm-187.894-2.844c-8.782,2.969-17.253,6.9-26.464,8.54l-.016.005c-4.479,1.757-8.924,3.7-15.277,3.512,4.255-3.9,8.588-3.526,12.281-4.814,8.886-2.615,16.918-7.736,26.272-8.972l.024-.005,13.5-3.747C363.046,792.945,358.479,792.178,355.318,794.505Zm61.532-11.579c-3.635.333-7.086,2.021-10.838,1.489h0q-2.668.271-5.331.54-1.678.384-3.358.764l-3.872.479c-4.966,2.793-10.841-.269-15.818,2.452h0c-2.024.2-4.05.41-6.548.66,1.5-2.732,3.677-1.47,5.217-2.141,4.2-1.459,8.436-2.73,12.966-2.413h0q2.632-.171,5.265-.346h0c1.776-1.515,3.859-1.273,5.941-1.041h0l5.534-.231h0c2.6-1.545,5.547-1.281,8.378-1.622h0c1.478-1.233,3.345-2.019,4.639-.4C419.671,781.923,417.991,782.735,416.851,782.927Zm6.91-2.94c1.805-1.582,3.3-.767,6.039-1.073C427.14,780.863,425.654,780.307,423.761,779.987Zm83.552,20.292q-4.11-.2-8.22-.394h0c-4.447.674-8.545-.951-12.753-2.05,5.757-.418,11.523-1.587,17.179.644v0l6.577.328Z" transform="translate(0.323 86.838)" fill="#008cd0"/><g transform="translate(296.501 910.904)"><path d="M322.709,799.636l-.746.36A1.494,1.494,0,0,0,322.709,799.636Z" transform="translate(-253.891 -779.686)" fill="#ce0022"/><path d="M368.656,796.338l-3.3.128a4.948,4.948,0,0,1-3.824.458,1.436,1.436,0,0,0,1.539-.868l-10.527-2.38c-3.411-2.921-6.916-.89-10.393-.195-15.163.413-30.3,1.193-45.392,2.82q-.16,2.784-.32,5.571,4.969-.32,9.933-.644l.213,1.342-10.09,2.413c-.021,7.491-.077,14.984-.037,22.475.011,1.888-.706,5.038,2.828,3.888,9.991-3.254,19.991.509,29.963-.45,13.16-1.265,26.137.152,39.012,2.927,2.349.506,4.847,1.174,6.633-.154.692-3.688-4.426-.735-3.366-4.442,3.222-1.6,7.5-.5,10.3-3.528-5.414-3.7,3.419-2.927,1.968-6.631-2.1-5.358,5.31-3.316,7.11-7.262C384.434,805.73,374.578,803.682,368.656,796.338Zm-6.33,17.147h0c-2-.314-4.21.439-6.109-1.23,3.084-.967,6.045-.41,9-.16a5.773,5.773,0,0,1,5.725,2.45C367.6,815.628,364.954,814.638,362.326,813.485Z" transform="translate(-296.4 -792.144)" fill="#ce0022"/></g></g><g transform="translate(1075.636 58.621)"><path d="M169.363,776.3a36.5,36.5,0,0,0-4.572-5.668,47.652,47.652,0,0,0-18.632-10.655,52.682,52.682,0,0,0-19.056-2.69c-7.061.37-13.714,2.086-19.363,6.642a23.117,23.117,0,0,0-8.5,14.224c-.177.966-.375,1.928-.533,2.9-.066.4-.03.89-.542.943-.465.048-.651-.4-.841-.754a63.3,63.3,0,0,1-3.58-7.96,57.129,57.129,0,0,1-3.4-16.5,3.26,3.26,0,0,1,.947-2.534,43.264,43.264,0,0,1,25.9-14.192c13.471-2.112,25.873.648,36.692,9.218,8.357,6.62,13.271,15.383,15.464,25.742A7.988,7.988,0,0,1,169.363,776.3Z" transform="translate(-4.646)" fill="#0096d4"/><path d="M83.812,768.094c-.116,2.473-.633,4.882-.577,7.345a49.215,49.215,0,0,0,9.4,27.965A40.225,40.225,0,0,0,108.4,816.99,28.412,28.412,0,0,0,122.22,819.8a22.2,22.2,0,0,0,6.252-1.205c.389-.14.835-.257,1.122.057.2.225.014.6-.164.869-4.211,6.353-8.69,12.46-14.895,17.092a4.568,4.568,0,0,1-4.107.734A46.384,46.384,0,0,1,90.5,827.5a42.755,42.755,0,0,1-14.175-24.21,44.34,44.34,0,0,1-.849-12.392A44.911,44.911,0,0,1,83,768.515.734.734,0,0,1,83.812,768.094Z" transform="translate(0 -8.904)" fill="#d31324"/><path d="M133.391,841.417a38.735,38.735,0,0,0,9.861-5.27c11.165-8.424,18.487-19.379,21.267-33.12,1.469-7.263.829-14.38-3.42-20.8-.493-.746-1.067-1.439-1.6-2.156-.224-.3-.43-.642-.177-.979.217-.289.577-.166.877-.074,8.171,2.5,15.807,6,22.208,11.821a2.663,2.663,0,0,1,.969,1.947c.917,14.674-3.889,27.026-14.663,37.124-6.4,6-14,9.364-22.457,11.021A40.758,40.758,0,0,1,133.391,841.417Z" transform="translate(-17.997 -12.262)" fill="#004990"/><path d="M124.04,800.024c-2.164-.168-4.018-.555-5.987-.611l5.626-1.793c-1.155-.87-2.431-.913-3.522-1.391-.347-.152-.976-.075-.909-.586.071-.537.661-.233,1.017-.277,1.181-.146,2.368-.253,3.749-.4-1.291-1.218-2.868-1.761-4.392-3.033,2.022-.2,3.54.547,5.473.639l-3.838-4.012.2-.3,5,2.219a19.527,19.527,0,0,0-1.74-3.3c-.177-.363-.775-.778-.286-1.153.4-.3.79.241,1.126.5.882.673,1.738,1.38,2.776,2.212.019-1.87-1.057-3.284-1.064-5.248,1.443,1.217,2.119,2.71,3.5,4.007v-4.753c1.293,1.089,1.528,2.679,2.447,4.1.851-1.718.633-3.552,1.347-5.472.768,1.869.688,3.624,1.242,5.508,1.14-1.43,1.427-3.189,2.581-4.727.516,1.919-.452,3.532.069,5.249a15.309,15.309,0,0,0,2.335-2.722c.207-.255.435-.754.811-.563.408.207.217.693.1,1.067-.338,1.091-.68,2.18-1.114,3.567a20.111,20.111,0,0,0,3.244-2.292c.258-.19.495-.471.811-.2s.111.54-.068.825c-.66,1.053-1.293,2.122-2.053,3.375,1.456-.194,2.448-1,3.6-1.367.344-.109.756-.389.986-.074.268.367-.2.624-.439.858-.831.8-1.681,1.589-2.663,2.512,1.153.549,1.962-.127,2.8-.084.3.015.613-.188.91-.164.357.028.906-.281,1.038.259.1.4-.411.52-.705.7-.974.6-1.954,1.191-2.964,1.8.62.681,1.288.4,1.886.448.581.046,1.172-.016,1.749.054.4.048,1.078-.15,1.107.435.026.519-.642.468-1.041.595-1.093.345-2.188.682-3.442,1.071.725.782,1.631.715,2.35,1.04a13.744,13.744,0,0,0,1.91.591c.272.077.548.164.47.51-.061.271-.345.248-.561.252-.988.02-1.976.015-2.964.046-.475.015-1-.153-1.448.38a27.62,27.62,0,0,0,3.231,2.077c.319.2.884.377.68.852-.188.435-.615.005-.94-.012-1.267-.068-2.465-.688-3.933-.528.975,1.5,2.418,2.391,3.6,4.038-2.007-.377-3.364-1.529-5.15-1.975.617,1.809,1.966,3.073,2.273,4.9l-4.258-3.286c.177,2.009,1.213,3.518,1.215,5.64-1.058-1.37-1.905-2.486-2.779-3.58-.2-.247-.345-.749-.781-.519-.375.2,0,.561,0,.851,0,1.245,0,2.489,0,4.13-1.307-1.48-1.465-3.2-2.479-4.572-.7,1.358-.559,2.783-.971,4.071-.087.273.083.711-.393.7-.432-.006-.375-.4-.425-.706A18.615,18.615,0,0,0,133,808.4l-2.179,4.5c-.817-1.869.281-3.485-.2-5.191a15.107,15.107,0,0,0-2.132,2.425c-.3.328-.537,1.066-1.1.741-.349-.2-.077-.8.07-1.24.335-1,.6-2.019.975-3.288-1.777.932-2.9,2.372-4.672,2.881l2.71-4.5a17.625,17.625,0,0,0-3.761,1.425c-.324.116-.721.494-.975.154-.341-.454.247-.673.489-.922.865-.893,1.772-1.746,2.663-2.614l-.154-.3c-1.1.17-2.2.314-3.294.522-.474.091-1.167.439-1.34.011-.265-.655.6-.737,1-1.02A22.474,22.474,0,0,0,124.04,800.024Z" transform="translate(-13.24 -13.024)" fill="#f4a227"/></g></g></svg>