<svg xmlns="http://www.w3.org/2000/svg" width="375.132" height="78.118" viewBox="0 0 375.132 78.118">
  <g id="separador-sm" transform="translate(-296.34 -720.728)">
    <path id="Trazado_57" data-name="Trazado 57" d="M771.844,729.153c-.389-.014-.889-.1-.729-.559a1.905,1.905,0,0,1,.982-.831c.546-.262.613.226.642.589C772.787,728.975,772.283,729.038,771.844,729.153Z" transform="translate(-133.946 -0.732)" fill="#ce0022"/>
    <path id="Trazado_58" data-name="Trazado 58" d="M774.23,727.948c-.148-.055-.636.127-.557-.3a1.643,1.643,0,0,1,.663-1.108c.32-.147.66.356.687.743C775.052,727.7,774.822,728.013,774.23,727.948Z" transform="translate(-134.217 -0.609)" fill="#d21424"/>
    <g id="Grupo_9" data-name="Grupo 9" transform="translate(296.34 745.672)">
      <path id="Trazado_63" data-name="Trazado 63" d="M302.237,765.776a.555.555,0,0,0,.277.123Z" transform="translate(-296.96 -750.411)" fill="#004181"/>
      <path id="Trazado_64" data-name="Trazado 64" d="M666.738,749.685c-5.5,1.18-11.12,1.768-16.576,3.177a6.153,6.153,0,0,1-2.281.478c-4.416.706-8.782,2-13.333,1.166a13.1,13.1,0,0,0-3.993-.268c-8.973.626-17.937.937-26.853-.706a2.808,2.808,0,0,0-2.688.4,11.091,11.091,0,0,1-3.973.26c-35,.02,14.009.032-20.989.013q-52.977-.028-105.953-.11c-20.734-.017-41.47-.252-62.2.047-29.675.429-59.4-1.669-89.026,1.75a199.931,199.931,0,0,0-20.726,3.413c-1.238.276-1.983.693-1.772,2.157a17.671,17.671,0,0,1,.023,3.071c-.038,1.135.719.722,1.283.7h0a10.078,10.078,0,0,1,3.934-1.263c3.458-1.1,6.661-2.987,10.352-3.372h0a3.566,3.566,0,0,1,2.37-.549c.812-.71,1.8-.448,2.721-.588-.737.89-1.778.821-2.711,1.058h0l-2.388.928h0c-3.058,1.093-6.032,2.445-9.263,3.007a16.6,16.6,0,0,1-4.439,1.27,2.047,2.047,0,0,0-1.888,2.609,28.468,28.468,0,0,1,.021,4.235c-.034.955.123,1.526,1.277,1.2,4.873-1.384,10.135-1.383,14.639-4.1.115-.07.385.114.736.231-.846,1.534-2.322,1.929-3.669,2.417a75.858,75.858,0,0,1-10,2.593c-.987.211-2.412-.033-2.855,1.43,1.006,1.384,2.184.421,3.3.237a15.523,15.523,0,0,1,3.836-.916c3.137-.708,6.316-1.2,9.471-1.821a13.838,13.838,0,0,1,2.748-.478,5.472,5.472,0,0,0,.666-.165c.966-.317,1.994-.148,2.965-.4.33-.081.659-.173.99-.255a17.01,17.01,0,0,1,2.454-.473c.464-.055.91-.232,1.369-.3,3.518-.494,6.99-1.8,10.608-.652,5.17-.056,10.288.653,15.431,1.008,5.242.362,10.522-.129,15.78.226a2.007,2.007,0,0,0,2.084-.757c1.1-.042,2.2-.12,3.3-.12,108.748-.005,133.489.019,242.237-.04,11.553-.006,23.1.2,34.629-1.619,7.685-1.211,15.474-1.8,23.086-3.552v-5.679c-5.721,1.483-11.04,4.332-17.036,4.914a94.553,94.553,0,0,1,17.036-5.861v-7.573a85.89,85.89,0,0,0-13.066,2.919h0a5.694,5.694,0,0,1-2.364,1.311c-.014-1.289.905-1.53,1.722-1.862,2.495-1.852,5.523-2.137,8.406-2.817,1.747-.412,3.534-.652,5.3-.97v-1.893C669.734,748.21,668.305,749.348,666.738,749.685Zm-333.42,7.588c-.481.18-.9.566-1.478.4l-1.27.142h0a2.7,2.7,0,0,1-2.029.335h0l-2.3.08h0c-1.016.809-2.229.393-3.35.543a4.234,4.234,0,0,1-3,.269,1.972,1.972,0,0,1,2.116-.778l4.219-.441,1.783-.147a1.77,1.77,0,0,1,1.578-.328l1.735-.151a3.449,3.449,0,0,1,1.988-.475,1.2,1.2,0,0,1,1.606-.183A2.467,2.467,0,0,1,333.318,757.273ZM631.348,769a11.617,11.617,0,0,1,5.264-.249C635.027,768.844,633.55,769.953,631.348,769Zm6.172-.463-.1-.676,5.988-.719c.795-.379,1.694.037,2.49-.328h2.081A38.29,38.29,0,0,1,637.519,768.541Zm14.688-2.208-.6-.472a3.837,3.837,0,0,1,.685-.16c.471-.025,1.255-.632,1.289.268C653.6,766.485,652.706,766.276,652.208,766.333Z" transform="translate(-296.34 -748.604)" fill="#004181"/>
      <path id="Trazado_65" data-name="Trazado 65" d="M333.754,758.5l-.259-.123A.516.516,0,0,0,333.754,758.5Z" transform="translate(-300.248 -749.633)" fill="#004181"/>
    </g>
    <path id="Trazado_68" data-name="Trazado 68" d="M799.833,740.182v-4.733a3.028,3.028,0,0,0-2.344-.609,5.664,5.664,0,0,0-1.217.192c-3.314.533-6.669-.1-9.989.364-.693.25-1.367.545-2.054.835l1.386-.011-5.249,2.182c.42-1.491,1.418-1.75,2.288-2.126a3.939,3.939,0,0,0,.046-.473c-2.04-.587-4.02-1.746-6.241-.668-5.324,1.34-10.632,2.964-16.187,2.663-2.725-.148-5.436-.6-8.187-.549-5.665.1-11.328.213-16.955-.761-2.785-.482-5.618-.675-8.408-1.135-1.257-.208-1.777.127-1.736,1.372.71.447,2.209-.266,2.211.727,0,1.2-1.458.705-2.3.906-.379.092-.786.078-1.165.171-1.3.317-1.393.464-.879,1.8.185.479-.146.592-.362.659a18.508,18.508,0,0,1-1.81.389c2.693,4.02-2.587,2.376-2.693,4.444.786.861,2.152,1.272,3.389,1.928,2.733,1.448,5.973,2.062,7.991,4.72,10.565,1.985,21.2,1.594,31.852,1.018a6.412,6.412,0,0,1,1.58.317c.833-.3,1.717-.009,2.556-.228a19.513,19.513,0,0,1,3.366-.156,49.989,49.989,0,0,1,7.055-1.173,6.932,6.932,0,0,1,2.792-.243c.839-.169,1.685-.318,2.519-.51,6.239-1.442,12.735-1.733,18.74-4.211v-6.626a.4.4,0,0,0-.582.055C799.266,740.337,799.707,740.432,799.833,740.182Zm-66.792,5.284h0l-2.71-.141c-.736.149-1.38-.047-2.483-.874,1.655.017,2.776-.25,3.883.4h0l1.781.14h0a6.047,6.047,0,0,1,4.35.916C735.867,745.767,734.442,746.156,733.041,745.466Zm23.179,5.881c.85-.549,1.633-.141,2.362-.086A2.991,2.991,0,0,1,756.22,751.346Zm5.766-.731h0c-.531.639-1.218.381-2.512.492a4.864,4.864,0,0,1,2.514-.882l4.827-.553C765.065,750.969,763.476,750.5,761.986,750.615Zm15.621-2.343a7.617,7.617,0,0,1-3.33.874h0c-.792.139-1.514.637-2.368.453h0c-1.274-.072-2.59,1.234-4.282-.389H771.9l1.809-.555c1.2-.73,2.638-.36,3.885-.862h0c.565.025,1.043-.59,1.694-.251C778.955,748.387,778.225,748.2,777.607,748.273Zm16.557-5.3a3.945,3.945,0,0,1-2.4.944c-3.708,1.049-7.11,3.17-11.139,3.128,3.513-1.237,6.864-2.919,10.553-3.63h0a4.607,4.607,0,0,1,2.993-.748h0c.639-.2,1.2-.729,2.139-.439A2.491,2.491,0,0,1,794.164,742.97Z" transform="translate(-128.361 -1.469)" fill="#008cd0"/>
    <path id="Trazado_69" data-name="Trazado 69" d="M805,721.773c-3.823.292-7.609-.5-11.45-.277a44.554,44.554,0,0,1-11.374-.768h-1.42c-.942,1.362,1,1.118,1.166,1.851-.742.817-1.731.4-2.486.777-.4.2-1.122.168-1.117.7a4.179,4.179,0,0,1-3.232,4.4c2.367,2.1,5.4,2.915,7.379,5.218l6.273,1.108c.969.966,1.92-.152,2.882-.023,3.666-.371,7.385.09,11.024-.7a.64.64,0,0,0-.573-.293,1.8,1.8,0,0,1,1.381.217l2.385.006v-1.893l-3.31.508h0c-.59.582-1.255.5-2.082.363-.029.012-.06.021-.089.034.192.22-.253.1-.1-.065-.141-.024-.287-.048-.438-.07l2.67-.8,3.353-.913v-8.993A1.318,1.318,0,0,0,805,721.773Zm-21.424,6.741c1.316-.752,1.316-.752,3.014.073A5.332,5.332,0,0,1,783.574,728.514Zm18.071,5.228a.713.713,0,0,1-.219-.053A1.12,1.12,0,0,0,801.646,733.742Z" transform="translate(-134.367 0)" fill="#ce0022"/>
    <path id="Trazado_70" data-name="Trazado 70" d="M379.423,781.147c-.584-.474-1.025-1.216-1.913-1.515a37.107,37.107,0,0,1-7.043-3.274c-.91-.539-2.1-.857-2.224-2.211a3.415,3.415,0,0,1-1.126.225c-4.779-.744-9.6-.443-14.371-.245s-9.321-1.73-14.1-1.024a26.178,26.178,0,0,1-3.747.032c-3.376-.41-6.637.41-9.926.935a12.014,12.014,0,0,1-4.918.494l-.5.361c-1.019.709-2.27-.09-3.306.506l.033,0c-.915.632-2.038-.068-2.968.463a54.126,54.126,0,0,0-9.8,1.849c-1.214.523-2.588.463-3.789,1.033-1.068-.069-2.1.783-3.192.123q0,6.314,0,12.627a2.169,2.169,0,0,0,1.95.511c4.257-.368,8.52-.624,12.789-.891.529-.157,1.048-.345,1.566-.547l-1.051-.02c1.744-1.162,4.048-1.181,5.74-3.386.124,2.309-1.291,2.708-2.249,3.451h-.04a1.249,1.249,0,0,0,0,.272c.819,1.1,2.147.533,3.17.959a4.559,4.559,0,0,0,1.031.141,1.538,1.538,0,0,0,1.255-.477c1.012-.768,2.274-.542,3.4-.764,4.307-.847,8.579-2.208,13.017-1.906,2.543.173,5.033.868,7.64.793,7.632-.223,15.26-.249,22.792,1.355,1.221.26,2.492.283,3.737.446.59.078.859-.2,1.018-.713.118-.382.006-.558-.382-.635-.7-.141-1.941.142-1.82-.846.11-.9,1.44-.675,2.235-.914.518-.157,1.115-.055,1.629-.217.5-.156,1.167-.4,1.346-.789.365-.8-1.208-.276-.96-1.3l2.167-.768C374.43,781.61,379.07,782.954,379.423,781.147Zm-63.137-.956c-2.951,1-5.8,2.318-8.893,2.87l-.005,0a12,12,0,0,1-5.134,1.18c1.43-1.309,2.886-1.185,4.127-1.618,2.986-.879,5.685-2.6,8.828-3.015l.008,0,4.538-1.259C318.884,779.667,317.349,779.409,316.287,780.191Zm20.676-3.891c-1.221.112-2.381.679-3.642.5h0l-1.791.182-1.128.257-1.3.161c-1.669.939-3.643-.09-5.315.824h0l-2.2.222c.5-.918,1.236-.494,1.753-.719a10.9,10.9,0,0,1,4.357-.811h0l1.769-.116h0a2.409,2.409,0,0,1,2-.35h0l1.859-.078h0a6.731,6.731,0,0,1,2.815-.545h0c.5-.414,1.124-.678,1.559-.134C337.911,775.963,337.346,776.236,336.963,776.3Zm2.322-.988c.607-.531,1.11-.258,2.029-.361A2.1,2.1,0,0,1,339.285,775.313Zm28.075,6.818L364.6,782h0a10.559,10.559,0,0,1-4.285-.689c1.935-.141,3.872-.533,5.772.216h0l2.21.11Z" transform="translate(-0.02 -5.493)" fill="#008cd0"/>
    <g id="Grupo_10" data-name="Grupo 10" transform="translate(296.394 784.632)">
      <path id="Trazado_71" data-name="Trazado 71" d="M322.214,799.636l-.251.121A.5.5,0,0,0,322.214,799.636Z" transform="translate(-299.089 -792.932)" fill="#ce0022"/>
      <path id="Trazado_72" data-name="Trazado 72" d="M320.68,793.553l-1.11.043a1.662,1.662,0,0,1-1.285.154.482.482,0,0,0,.517-.292l-3.537-.8c-1.146-.982-2.324-.3-3.492-.065-5.1.139-10.183.4-15.253.948l-.107,1.872,3.338-.216.072.451-3.39.811c-.007,2.517-.026,5.035-.013,7.552,0,.634-.237,1.693.95,1.306,3.357-1.093,6.717.171,10.068-.151a42.586,42.586,0,0,1,13.109.983c.789.17,1.629.395,2.229-.052.233-1.239-1.487-.247-1.131-1.493,1.083-.539,2.521-.168,3.46-1.186-1.819-1.242,1.149-.983.661-2.228-.707-1.8,1.784-1.114,2.389-2.44C325.981,796.709,322.67,796.021,320.68,793.553Zm-2.127,5.762h0c-.671-.106-1.415.148-2.053-.413a7.549,7.549,0,0,1,3.024-.054,1.94,1.94,0,0,1,1.924.823A3.8,3.8,0,0,1,318.553,799.315Z" transform="translate(-296.4 -792.144)" fill="#ce0022"/>
    </g>
  </g>
</svg>
